# xmcd
#
# Track frame offsets:
#	150
#	15980
#	32275
#	50195
#	65735
#	82222
#	99697
#	124252
#	139207
#	162687
#	177050
#	191025
#	203860
#	217592
#	232780
#	247312
#	263565
#	281805
#	293772
#
# Disc length: 4230 seconds
#
# Revision: 3
# Processed by: cddbd v1.5.2PL0 Copyright (c) Steve Scherf et al.
# Submitted via: EZCDAudioConverter 1.3.4.1
#
DISCID=1e108413
DTITLE=Free - Free (1969)
DYEAR=1969
DGENRE=
TTITLE0=I'll Be Creepin'
TTITLE1=Songs Of Yesterday
TTITLE2=Lying In The Sunshine
TTITLE3=Trouble On Double Time
TTITLE4=Mouthful Of Grass
TTITLE5=Woman
TTITLE6=Free Me
TTITLE7=Broad Daylight
TTITLE8=Mourning Sad Morning
TTITLE9=Broad Daylight [Single]
TTITLE10=The Worm [Single]
TTITLE11=I'll Be Creepin' [Single]
TTITLE12=Sugar For Mr. Morrison [Single]
TTITLE13=Broad Daylight [BBC Session]
TTITLE14=Songs Of Yesterday [BBC Session]
TTITLE15=Mouthfull Of Grass [Solo Version]
TTITLE16=Woman [Alternate Version]
TTITLE17=Trouble On Double Time [Early Version]
TTITLE18=Mourning Sad Morning [Alternate Version]
EXTD=
EXTT0=
EXTT1=
EXTT2=
EXTT3=
EXTT4=
EXTT5=
EXTT6=
EXTT7=
EXTT8=
EXTT9=
EXTT10=
EXTT11=
EXTT12=
EXTT13=
EXTT14=
EXTT15=
EXTT16=
EXTT17=
EXTT18=
PLAYORDER=
